<svg width="166" height="26" viewBox="0 0 166 26" fill="none" xmlns="http://www.w3.org/2000/svg">
<g clip-path="url(#clip0_141_232)">
<path d="M13.2391 19.8831L5.88815 23.9979L7.52969 15.735L1.34394 10.0151L9.71007 9.02291L13.2391 1.3728L16.7682 9.02291L25.1343 10.0151L18.9486 15.735L20.5901 23.9979L13.2391 19.8831Z" fill="#FFA500"/>
</g>
<g clip-path="url(#clip1_141_232)">
<path d="M48.2581 19.8831L40.9071 23.9979L42.5486 15.735L36.3629 10.0151L44.729 9.02291L48.2581 1.3728L51.7871 9.02291L60.1532 10.0151L53.9675 15.735L55.609 23.9979L48.2581 19.8831Z" fill="#FFA500"/>
</g>
<g clip-path="url(#clip2_141_232)">
<path d="M83.2786 19.8831L75.9276 23.9979L77.5691 15.735L71.3834 10.0151L79.7495 9.02291L83.2786 1.3728L86.8076 9.02291L95.1738 10.0151L88.988 15.735L90.6295 23.9979L83.2786 19.8831Z" fill="#FFA500"/>
</g>
<g clip-path="url(#clip3_141_232)">
<path d="M118.298 19.8831L110.947 23.9979L112.588 15.735L106.402 10.0151L114.769 9.02291L118.298 1.3728L121.827 9.02291L130.193 10.0151L124.007 15.735L125.649 23.9979L118.298 19.8831Z" fill="#FFA500"/>
</g>
<g clip-path="url(#clip4_141_232)">
<path d="M153.318 19.8831L145.967 23.9979L147.609 15.735L141.423 10.0151L149.789 9.02291L153.318 1.3728L156.847 9.02291L165.213 10.0151L159.027 15.735L160.669 23.9979L153.318 19.8831Z" fill="#FFA500"/>
</g>
<defs>
<clipPath id="clip0_141_232">
<rect width="25.014" height="25.014" fill="white" transform="translate(0.731958 0.851074)"/>
</clipPath>
<clipPath id="clip1_141_232">
<rect width="25.014" height="25.014" fill="white" transform="translate(35.7509 0.851074)"/>
</clipPath>
<clipPath id="clip2_141_232">
<rect width="25.014" height="25.014" fill="white" transform="translate(70.7714 0.851074)"/>
</clipPath>
<clipPath id="clip3_141_232">
<rect width="25.014" height="25.014" fill="white" transform="translate(105.79 0.851074)"/>
</clipPath>
<clipPath id="clip4_141_232">
<rect width="25.014" height="25.014" fill="white" transform="translate(140.811 0.851074)"/>
</clipPath>
</defs>
</svg>
