<svg width="166" height="26" viewBox="0 0 166 26" fill="none" xmlns="http://www.w3.org/2000/svg">
<g clip-path="url(#clip0_141_288)">
<path d="M13.1567 19.8831L5.80568 23.9979L7.44722 15.735L1.26147 10.0151L9.62761 9.02291L13.1567 1.3728L16.6857 9.02291L25.0518 10.0151L18.8661 15.735L20.5076 23.9979L13.1567 19.8831Z" fill="#FFA500"/>
</g>
<g clip-path="url(#clip1_141_288)">
<path d="M48.1756 19.8831L40.8247 23.9979L42.4662 15.735L36.2805 10.0151L44.6466 9.02291L48.1756 1.3728L51.7047 9.02291L60.0708 10.0151L53.8851 15.735L55.5266 23.9979L48.1756 19.8831Z" fill="#FFA500"/>
</g>
<g clip-path="url(#clip2_141_288)">
<path d="M83.1961 19.8831L75.8451 23.9979L77.4866 15.735L71.3009 10.0151L79.667 9.02291L83.1961 1.3728L86.7251 9.02291L95.0913 10.0151L88.9055 15.735L90.5471 23.9979L83.1961 19.8831Z" fill="#FFA500"/>
</g>
<g clip-path="url(#clip3_141_288)">
<path d="M118.215 19.8831L110.864 23.9979L112.506 15.735L106.32 10.0151L114.686 9.02291L118.215 1.3728L121.744 9.02291L130.11 10.0151L123.924 15.735L125.566 23.9979L118.215 19.8831Z" fill="#FFA500"/>
</g>
<g clip-path="url(#clip4_141_288)">
<path d="M153.235 19.8831L145.885 23.9979L147.526 15.735L141.34 10.0151L149.706 9.02291L153.235 1.3728L156.765 9.02291L165.131 10.0151L158.945 15.735L160.586 23.9979L153.235 19.8831Z" fill="#FFA500"/>
</g>
<defs>
<clipPath id="clip0_141_288">
<rect width="25.014" height="25.014" fill="white" transform="translate(0.649475 0.851074)"/>
</clipPath>
<clipPath id="clip1_141_288">
<rect width="25.014" height="25.014" fill="white" transform="translate(35.6684 0.851074)"/>
</clipPath>
<clipPath id="clip2_141_288">
<rect width="25.014" height="25.014" fill="white" transform="translate(70.689 0.851074)"/>
</clipPath>
<clipPath id="clip3_141_288">
<rect width="25.014" height="25.014" fill="white" transform="translate(105.708 0.851074)"/>
</clipPath>
<clipPath id="clip4_141_288">
<rect width="25.014" height="25.014" fill="white" transform="translate(140.728 0.851074)"/>
</clipPath>
</defs>
</svg>
